<svg
  viewBox="0 0 48 48"
  fill="none"
  xmlns="http://www.w3.org/2000/svg"
>
  <defs>
    <linearGradient id="lensGrad" x1="0" y1="0" x2="48" y2="48" gradientUnits="userSpaceOnUse">
      <stop offset="0%" stop-color="#232F72" />
      <stop offset="100%" stop-color="#3B82F6" />
    </linearGradient>
    <linearGradient id="planeGrad" x1="0" y1="0" x2="0" y2="48" gradientUnits="userSpaceOnUse">
      <stop offset="0%" stop-color="#60A5FA" />
      <stop offset="100%" stop-color="#1E3A8A" />
    </linearGradient>
  </defs>

  <path
    d="M 4 24 C 14 6 34 6 44 24 C 34 42 14 42 4 24 Z"
    fill="#232F72"
    fill-opacity="0.05"
    stroke="url(#lensGrad)"
    stroke-width="2.5"
    stroke-linejoin="round"
  />
  
  <ellipse cx="24" cy="24" rx="12" ry="6" stroke="#60A5FA" stroke-width="1" stroke-dasharray="2 3" opacity="0.4" />

  <path d="M 24 14 L 24 26" stroke="#60A5FA" stroke-width="1.5" stroke-dasharray="2 2" opacity="0.6" />

  <path
    d="M 24 12 L 34 17 L 24 22 L 14 17 Z"
    fill="url(#lensGrad)"
    fill-opacity="0.15"
    stroke="url(#lensGrad)"
    stroke-width="1.5"
    stroke-linejoin="round"
  />
  
  <path
    d="M 24 26 L 34 31 L 24 36 L 14 31 Z"
    fill="url(#planeGrad)"
    fill-opacity="0.15"
    stroke="#232F72"
    stroke-width="1.5"
    stroke-linejoin="round"
  />
  
  <path 
    d="M 14 17 L 14 31 M 24 22 L 24 36 M 34 17 L 34 31" 
    stroke="#3B82F6" 
    stroke-width="1.5" 
    stroke-linecap="round" 
  />

  <circle cx="14" cy="17" r="2.5" fill="#232F72" />
  <circle cx="34" cy="17" r="2.5" fill="#3B82F6" />
  <circle cx="24" cy="36" r="2.5" fill="#1E3A8A" />

  <circle cx="24" cy="22" r="3" fill="#FFFFFF" />
  <circle cx="24" cy="22" r="1.5" fill="#232F72" />
</svg>
